<?xml version="1.0" encoding="UTF-8" standalone="no"?>
<svg
   id="Layer_1"
   data-name="Layer 1"
   viewBox="0 0 2400 800"
   version="1.1"
   sodipodi:docname="bw_timex_dark_rtd.svg"
   width="2400"
   height="800"
   inkscape:version="1.3.2 (091e20e, 2023-11-25)"
   xmlns:inkscape="http://www.inkscape.org/namespaces/inkscape"
   xmlns:sodipodi="http://sodipodi.sourceforge.net/DTD/sodipodi-0.dtd"
   xmlns="http://www.w3.org/2000/svg"
   xmlns:svg="http://www.w3.org/2000/svg">
  <sodipodi:namedview
     id="namedview16"
     pagecolor="#ffffff"
     bordercolor="#000000"
     borderopacity="0.25"
     inkscape:showpageshadow="2"
     inkscape:pageopacity="0.0"
     inkscape:pagecheckerboard="0"
     inkscape:deskcolor="#d1d1d1"
     inkscape:zoom="0.23579016"
     inkscape:cx="899.10452"
     inkscape:cy="233.25825"
     inkscape:window-width="1312"
     inkscape:window-height="449"
     inkscape:window-x="0"
     inkscape:window-y="34"
     inkscape:window-maximized="0"
     inkscape:current-layer="Layer_1" />
  <defs
     id="defs1">
    <style
       id="style1">
      .cls-1 {
        fill: #316733;
      }

      .cls-1, .cls-2, .cls-3 {
        stroke-width: 0px;
      }

      .cls-2 {
        fill: #fff;
      }

      .cls-3 {
        fill: #74b944;
      }
    </style>
  </defs>
  <g
     id="g16"
     transform="translate(299.9891,166)">
    <g
       id="g9">
      <path
         class="cls-3"
         d="m 197,199.3 c -28.32,-7.58 -44.77,-26.36 -50.97,-55.31 -3.28,-15.3 -3.32,-30.76 -2.93,-46.35 0.38,-0.06 0.73,-0.25 0.95,-0.14 17.17,8.39 34.4,16.71 49.6,28.69 4.48,3.53 8.37,7.86 12.49,11.87 1.17,1.13 1.46,2.28 0.37,3.93 -7.09,10.68 -9.73,22.65 -9.43,35.48 0.15,6.51 0.12,13.03 0.14,19.55 0,0.73 -0.14,1.46 -0.23,2.28 z"
         id="path1" />
      <path
         class="cls-3"
         d="m 287.04,382.73 c -8.28,-3.49 -16.6,-6.91 -24.85,-10.5 -10.89,-4.74 -21.62,-9.81 -30.71,-17.69 -2.38,-2.06 -4.48,-4.44 -6.83,-6.54 -1.41,-1.27 -1.28,-2.31 -0.33,-3.8 4.09,-6.46 7.3,-13.4 8.28,-21.01 0.76,-5.93 0.59,-11.99 0.7,-18 0.1,-5.15 0.02,-10.31 0.02,-16.03 2.88,1.09 5.39,2.01 7.87,2.97 27.2,10.46 41.89,30.64 45.09,59.4 1.13,10.14 1.22,20.39 1.79,30.59 -0.34,0.21 -0.68,0.41 -1.03,0.62 z"
         id="path2" />
      <path
         class="cls-1"
         d="m 233.23,199.77 c 0.29,-6.08 -1.48,-11.53 2.35,-16.92 10.12,-14.24 19.83,-28.8 29.62,-43.3 1.14,-1.68 3.75,-3.7 1.23,-5.81 -2.53,-2.11 -3.55,1.22 -4.81,2.56 -10.12,10.76 -19.11,22.47 -27.05,35.05 -0.28,0.44 -0.6,0.85 -1.47,2.07 0.56,-12.74 -3.85,-22.98 -10.31,-32.67 4.36,-6.23 9.59,-11.5 15.59,-15.91 13.74,-10.07 28.82,-17.72 43.81,-25.52 1.54,-0.8 3.14,-1.51 5.35,-2.56 0,3.99 -0.06,7.32 0.01,10.64 0.27,12.62 -0.35,25.12 -3.18,37.48 -5.91,25.77 -20.59,43.39 -44.74,52.42 -1.94,0.73 -3.87,1.5 -6.4,2.48 z"
         id="path3" />
      <path
         class="cls-3"
         d="m 197.44,288.81 c 0,4.19 0.17,7.89 -0.09,11.56 -0.09,1.34 -1.02,2.72 -1.84,3.89 -9.67,13.79 -19.38,27.54 -29.09,41.31 -0.18,0.26 -0.47,0.49 -0.53,0.78 -0.26,1.3 -0.46,2.61 -0.68,3.92 1.22,-0.53 2.83,-0.73 3.61,-1.64 8.7,-10.27 17.28,-20.65 25.89,-31 0.65,-0.78 1.31,-1.57 2.23,-2.67 0.43,3.98 0.21,7.69 1.32,10.93 2.07,6.03 4.67,11.91 7.55,17.6 1.1,2.16 1.02,3.21 -0.59,4.8 -7.4,7.34 -15.77,13.31 -25.11,17.79 -12.07,5.8 -24.31,11.23 -36.66,16.9 0,-9.41 -0.33,-18.03 0.08,-26.61 0.57,-12.06 3.91,-23.44 9.63,-34.1 7.85,-14.65 20.11,-24.04 35.22,-30.05 2.89,-1.15 5.81,-2.19 9.05,-3.41 z"
         id="path4" />
      <g
         id="g8">
        <path
           class="cls-2"
           d="m 215.32,54 c 31.19,0 62.38,0 93.57,0 10.23,0 14.81,4.56 14.84,14.82 0.05,19.96 0.6,39.94 -0.02,59.88 -0.94,30.05 -12.54,55.56 -34.11,76.56 -10.54,10.26 -23.12,17.02 -36.19,23.16 -2.46,1.16 -4.95,2.34 -7.22,3.84 -6.43,4.23 -6.59,11.57 -0.16,15.83 3.74,2.48 7.87,4.41 11.96,6.31 20.94,9.72 37.95,23.97 50,43.88 10.5,17.35 15.83,36.18 15.73,56.55 -0.08,15 0.02,29.99 0.02,44.99 0,9.1 -5.01,14.18 -13.96,14.18 -62.17,0 -124.33,0 -186.5,0 -1.16,0 -2.31,0 -3.47,-0.02 -7.27,-0.12 -12.88,-5.46 -12.92,-12.76 -0.1,-17.32 -0.96,-34.71 0.21,-51.95 2.6,-38.26 19.57,-68.38 52.96,-88.14 6.22,-3.68 12.92,-6.52 19.33,-9.86 2.41,-1.25 4.87,-2.58 6.89,-4.35 4.53,-3.95 4.48,-9.7 -0.31,-13.31 -2.97,-2.24 -6.49,-3.82 -9.93,-5.33 -12.48,-5.47 -24.34,-11.96 -34.19,-21.55 -18.87,-18.37 -30.61,-40.53 -33.68,-66.89 -1.08,-9.29 -1.14,-18.73 -1.27,-28.1 -0.2,-14.57 -0.07,-29.15 -0.08,-43.72 0,-9 4.85,-14.01 13.68,-14.01 31.61,-0.02 63.22,0 94.83,0 z m -0.14,296.58 c 0.49,0.4 0.82,0.65 1.12,0.94 14.26,13.49 30.7,23.71 47.85,33.02 11.81,6.42 24.24,6.45 37.31,5.61 0,-1.24 0,-2.37 0,-3.5 -0.01,-10.67 0.11,-21.33 -0.1,-32 -0.1,-4.93 -0.45,-9.92 -1.34,-14.76 -4.83,-26.06 -18.95,-45.82 -41.23,-59.64 -6.83,-4.24 -14.29,-7.45 -21.42,-11.22 -11.65,-6.16 -17.58,-15.67 -17.24,-29.15 0.31,-12.03 5.08,-21.1 15.94,-26.61 4.3,-2.19 8.59,-4.41 12.93,-6.52 14.77,-7.18 26.79,-17.63 36.34,-30.99 11.23,-15.72 16.1,-33.41 16.11,-52.6 0.01,-13.94 -0.02,-27.88 -0.03,-41.82 0,-1.13 0,-2.26 0,-3.57 H 129.53 c -0.05,0.85 -0.13,1.47 -0.13,2.09 -0.02,15.31 -0.11,30.62 -0.01,45.93 0.03,4.42 0.28,8.89 0.95,13.25 4.17,26.78 18.7,46.83 40.67,61.64 7.1,4.79 15.04,8.34 22.65,12.33 4.61,2.42 8.8,5.21 11.91,9.57 7.18,10.1 6.87,28.54 -2.8,38.84 -5.23,5.56 -11.86,8.63 -18.45,11.83 -10.17,4.93 -19.78,10.55 -27.9,18.62 -16.52,16.41 -26.39,35.85 -26.96,59.46 -0.3,12.45 -0.07,24.92 -0.06,37.38 0,0.49 0.18,0.97 0.33,1.75 4.21,0 8.31,-0.23 12.36,0.05 8.46,0.59 16.34,-1.46 23.53,-5.63 10.16,-5.89 20.24,-11.99 29.94,-18.61 6.83,-4.66 12.98,-10.32 19.63,-15.68 z"
           id="path5" />
        <path
           class="cls-2"
           d="M 215.44,125.37 C 202.85,112.32 188.69,102.62 172.55,93.94 h 84.7 c -15.3,8.88 -30.19,17.58 -41.81,31.43 z"
           id="path6" />
        <path
           class="cls-2"
           d="m 215.22,221.39 c -2.1,-3.6 -4.41,-7.42 -6.55,-11.34 -0.68,-1.24 -1.24,-2.74 -1.24,-4.12 -0.02,-12.34 -0.13,-24.69 0.26,-37.02 0.22,-7.15 2.56,-13.8 7.29,-19.89 3.59,4.25 5.79,8.94 6.99,14.03 0.77,3.25 1.14,6.67 1.19,10.01 0.17,10.65 0.14,21.31 0.09,31.96 0,1.39 -0.39,2.92 -1.05,4.14 -2.27,4.23 -4.75,8.36 -6.97,12.23 z"
           id="path7" />
        <path
           class="cls-2"
           d="m 215.14,332.21 c -4.39,-5.75 -7.41,-11.78 -7.53,-18.89 -0.23,-12.55 -0.38,-25.1 -0.4,-37.65 0,-6.86 4.8,-10.6 10.62,-8.52 3.31,1.18 5.34,3.71 5.34,7.12 0,13.7 0.02,27.41 -0.57,41.09 -0.27,6.24 -3.16,11.85 -7.46,16.85 z"
           id="path8" />
      </g>
    </g>
    <path
       class="cls-2"
       d="m 594.73,258.91 c 0,12.94 -1.83,24.13 -5.48,33.55 -3.65,9.43 -8.74,17.26 -15.25,23.5 -6.52,6.24 -14.21,10.86 -23.08,13.87 -8.87,3.01 -18.53,4.51 -28.98,4.51 -10.45,0 -19.81,-0.76 -28.63,-2.29 -8.83,-1.53 -17.26,-3.58 -25.3,-6.17 V 135.93 h 33.83 v 46.03 l -1.39,27.73 c 5.08,-6.56 11.02,-11.83 17.82,-15.81 6.79,-3.97 14.95,-5.96 24.47,-5.96 8.32,0 15.71,1.66 22.18,4.99 6.47,3.33 11.9,8.07 16.29,14.21 4.39,6.15 7.74,13.59 10.05,22.32 2.31,8.73 3.47,18.56 3.47,29.46 z m -35.5,1.39 c 0,-7.76 -0.55,-14.37 -1.66,-19.83 -1.11,-5.45 -2.7,-9.94 -4.78,-13.45 -2.08,-3.51 -4.62,-6.08 -7.63,-7.7 -3,-1.62 -6.45,-2.43 -10.33,-2.43 -5.73,0 -11.21,2.31 -16.43,6.93 -5.22,4.62 -10.75,10.91 -16.57,18.86 v 61.56 c 2.68,1.02 5.98,1.85 9.91,2.5 3.93,0.65 7.92,0.97 11.99,0.97 5.36,0 10.24,-1.11 14.63,-3.33 4.39,-2.22 8.13,-5.36 11.23,-9.43 3.1,-4.07 5.48,-9.03 7.14,-14.9 1.66,-5.87 2.5,-12.45 2.5,-19.76 z"
       id="path9" />
    <path
       class="cls-2"
       d="m 739.76,331.84 h -37.57 l -14.97,-44.65 -4.58,-15.53 -4.58,15.95 -14.42,44.23 H 625.93 L 605.96,190.97 h 32.17 l 10.12,79.59 2.36,21.77 5.68,-19.55 14.14,-42.84 h 25.79 l 15.11,42.57 6.52,20.1 2.63,-22.32 8.46,-79.31 h 30.64 l -19.83,140.87 z"
       id="path10" />
    <path
       class="cls-2"
       d="m 765,369.01 v -26.76 h 156.12 v 26.76 z"
       id="path11" />
    <path
       class="cls-2"
       d="m 1052.55,330.46 c -6.1,1.39 -12.25,2.5 -18.44,3.33 -6.19,0.83 -12.06,1.25 -17.61,1.25 -9.24,0 -17.22,-0.97 -23.92,-2.91 -6.7,-1.94 -12.25,-4.9 -16.64,-8.87 -4.39,-3.97 -7.63,-9.03 -9.71,-15.18 -2.08,-6.15 -3.12,-13.47 -3.12,-21.98 v -68.77 h -37.85 v -26.34 h 37.85 v -36.05 l 34.66,-9.01 v 45.06 h 54.77 v 26.34 h -54.77 v 66.28 c 0,8.04 1.85,14.12 5.55,18.23 3.7,4.11 9.89,6.17 18.58,6.17 5.55,0 10.95,-0.46 16.22,-1.39 5.27,-0.92 10.07,-1.99 14.42,-3.19 v 27.04 z"
       id="path12" />
    <path
       class="cls-2"
       d="m 1137.96,217.32 h -39.79 v -26.34 h 74.46 v 114.53 h 40.62 v 26.34 h -119.93 v -26.34 h 44.65 v -88.18 z m 37.44,-64.89 c 0,3.05 -0.55,5.92 -1.66,8.6 -1.11,2.68 -2.66,5.02 -4.64,7 -1.98,1.98 -4.32,3.56 -7,4.71 -2.68,1.16 -5.59,1.73 -8.73,1.73 -3.14,0 -6.08,-0.58 -8.8,-1.73 -2.73,-1.15 -5.08,-2.73 -7.07,-4.71 -1.99,-1.99 -3.54,-4.32 -4.64,-7 -1.11,-2.68 -1.66,-5.55 -1.66,-8.6 0,-3.05 0.55,-5.91 1.66,-8.6 1.11,-2.68 2.66,-5.04 4.64,-7.07 1.99,-2.03 4.34,-3.63 7.07,-4.78 2.73,-1.15 5.66,-1.73 8.8,-1.73 3.14,0 6.05,0.58 8.73,1.73 2.68,1.16 5.01,2.75 7,4.78 1.99,2.03 3.54,4.39 4.64,7.07 1.11,2.68 1.66,5.55 1.66,8.6 z"
       id="path13" />
    <path
       class="cls-2"
       d="m 1348.02,331.84 v -95.95 c 0,-3.51 -0.09,-6.59 -0.28,-9.22 -0.19,-2.63 -0.55,-4.83 -1.11,-6.59 -0.55,-1.75 -1.36,-3.07 -2.43,-3.95 -1.06,-0.88 -2.52,-1.32 -4.37,-1.32 -2.87,0 -5.68,1.94 -8.46,5.82 -2.77,3.88 -5.92,10.49 -9.43,19.83 v 91.37 h -28.98 v -95.95 c 0,-3.51 -0.09,-6.59 -0.28,-9.22 -0.19,-2.63 -0.55,-4.83 -1.11,-6.59 -0.55,-1.75 -1.39,-3.07 -2.5,-3.95 -1.11,-0.88 -2.59,-1.32 -4.44,-1.32 -2.4,0 -5.08,1.94 -8.04,5.82 -2.96,3.88 -6.24,10.49 -9.84,19.83 v 91.37 h -29.26 V 190.95 h 25.1 l 0.55,20.52 c 2.03,-4.16 4.07,-7.72 6.1,-10.68 2.03,-2.96 4.2,-5.38 6.52,-7.28 2.31,-1.89 4.78,-3.26 7.42,-4.09 2.64,-0.83 5.62,-1.25 8.94,-1.25 7.86,0 13.84,2.06 17.96,6.17 4.11,4.11 6.45,9.82 7,17.12 2.22,-4.16 4.41,-7.72 6.59,-10.68 2.17,-2.96 4.44,-5.38 6.79,-7.28 2.36,-1.89 4.9,-3.26 7.63,-4.09 2.73,-0.83 5.75,-1.25 9.08,-1.25 10.26,0 17.84,3.58 22.74,10.75 4.9,7.16 7.35,17.77 7.35,31.82 V 331.81 H 1348 Z"
       id="path14" />
    <path
       class="cls-2"
       d="m 1527.43,250.59 c 0,2.31 -0.07,5.32 -0.21,9.01 -0.14,3.7 -0.35,7.16 -0.62,10.4 h -92.62 c 0,6.19 0.95,11.65 2.84,16.36 1.89,4.71 4.58,8.67 8.04,11.85 3.47,3.19 7.63,5.62 12.48,7.28 4.85,1.66 10.24,2.5 16.15,2.5 6.84,0 14.16,-0.53 21.98,-1.59 7.81,-1.06 15.92,-2.79 24.33,-5.2 v 26.9 c -3.61,1.02 -7.53,1.94 -11.79,2.77 -4.25,0.83 -8.6,1.57 -13.03,2.22 -4.44,0.65 -8.92,1.13 -13.45,1.46 -4.53,0.32 -8.92,0.49 -13.17,0.49 -10.72,0 -20.34,-1.53 -28.84,-4.58 -8.51,-3.05 -15.71,-7.56 -21.63,-13.52 -5.92,-5.96 -10.45,-13.33 -13.59,-22.11 -3.14,-8.78 -4.71,-18.95 -4.71,-30.5 0,-11.55 1.57,-21.88 4.71,-31.27 3.14,-9.38 7.58,-17.42 13.31,-24.13 5.73,-6.7 12.69,-11.88 20.87,-15.53 8.18,-3.65 17.31,-5.48 27.38,-5.48 10.07,0 18.81,1.55 26.48,4.64 7.67,3.1 14.09,7.42 19.27,12.96 5.18,5.55 9.1,12.16 11.79,19.83 2.68,7.67 4.02,16.08 4.02,25.23 z m -34.39,-4.85 c 0.09,-5.55 -0.6,-10.38 -2.08,-14.49 -1.48,-4.11 -3.49,-7.51 -6.03,-10.19 -2.54,-2.68 -5.5,-4.67 -8.87,-5.96 -3.37,-1.29 -7,-1.94 -10.88,-1.94 -8.51,0 -15.48,2.84 -20.94,8.53 -5.45,5.68 -8.69,13.7 -9.71,24.06 h 58.51 z"
       id="path15" />
    <path
       class="cls-2"
       d="m 1651.52,331.84 -32.17,-47.42 -32.31,47.42 h -40.9 l 52.83,-70.99 -50.05,-69.88 h 41.18 l 31.61,46.31 31.2,-46.31 h 37.99 l -48.53,69.6 51.16,71.27 z"
       id="path16" />
  </g>
</svg>
