<?xml version="1.0" encoding="UTF-8" standalone="no"?>
<svg
   id="Layer_1"
   data-name="Layer 1"
   viewBox="0 0 2400 800"
   version="1.1"
   sodipodi:docname="optimex_light_rtd.svg"
   inkscape:version="1.3.2 (091e20e, 2023-11-25)"
   width="2400"
   height="800"
   xmlns:inkscape="http://www.inkscape.org/namespaces/inkscape"
   xmlns:sodipodi="http://sodipodi.sourceforge.net/DTD/sodipodi-0.dtd"
   xmlns="http://www.w3.org/2000/svg"
   xmlns:svg="http://www.w3.org/2000/svg">
  <sodipodi:namedview
     id="namedview1"
     pagecolor="#ffffff"
     bordercolor="#000000"
     borderopacity="0.25"
     inkscape:showpageshadow="2"
     inkscape:pageopacity="0.0"
     inkscape:pagecheckerboard="0"
     inkscape:deskcolor="#d1d1d1"
     inkscape:zoom="0.3145674"
     inkscape:cx="747.05771"
     inkscape:cy="128.74824"
     inkscape:window-width="1512"
     inkscape:window-height="920"
     inkscape:window-x="0"
     inkscape:window-y="34"
     inkscape:window-maximized="0"
     inkscape:current-layer="Layer_1" />
  <defs
     id="defs1">
    <inkscape:path-effect
       effect="fillet_chamfer"
       id="path-effect1"
       is_visible="true"
       lpeversion="1"
       nodesatellites_param="F,0,0,1,0,0,0,1 @ F,0,0,1,0,0,0,1 @ F,0,0,1,0,0,0,1 @ F,0,0,1,0,0,0,1 @ F,0,0,1,0,0,0,1 @ F,0,0,1,0,0,0,1 @ F,0,0,1,0,0,0,1 @ F,0,0,1,0,0,0,1 @ F,0,0,1,0,0,0,1 @ F,0,0,1,0,0,0,1 @ F,0,0,1,0,0,0,1 @ F,0,0,1,0,0,0,1 @ F,0,0,1,0,0,0,1 @ F,0,0,1,0,0,0,1 @ F,0,0,1,0,0,0,1 @ F,0,0,1,0,0,0,1 @ F,0,0,1,0,0,0,1 @ F,0,0,1,0,0,0,1 @ F,0,0,1,0,0,0,1 @ F,0,0,1,0,0,0,1 @ F,0,0,1,0,0,0,1 @ F,0,0,1,0,0,0,1 @ F,0,0,1,0,0,0,1 @ F,0,0,1,0,0,0,1 @ F,0,0,1,0,0,0,1 @ F,0,0,1,0,0,0,1 @ F,0,0,1,0,0,0,1 @ F,0,0,1,0,0,0,1 @ F,0,0,1,0,0,0,1 @ F,0,0,1,0,0,0,1 @ F,0,0,1,0,0,0,1 @ F,0,0,1,0,0,0,1 @ F,0,0,1,0,0,0,1 @ F,0,0,1,0,0,0,1 @ F,0,0,1,0,0,0,1 @ F,0,0,1,0,0,0,1 @ F,0,0,1,0,0,0,1 @ F,0,0,1,0,0,0,1 @ F,0,0,1,0,0,0,1 @ F,0,0,1,0,0,0,1 @ F,0,0,1,0,0,0,1 @ F,0,0,1,0,0,0,1 @ F,0,0,1,0,0,0,1 @ F,0,0,1,0,0,0,1 @ F,0,0,1,0,0,0,1 @ F,0,0,1,0,4.7038729,0,1 @ F,0,0,1,0,0,0,1 @ F,0,0,1,0,4.6638673,0,1 @ F,0,0,1,0,0,0,1 @ F,0,0,1,0,0,0,1 @ F,0,0,1,0,0,0,1 @ F,0,0,1,0,0,0,1 @ F,0,0,1,0,0,0,1 @ F,0,0,1,0,0,0,1 @ F,0,0,1,0,0,0,1 @ F,0,0,1,0,0,0,1 @ F,0,0,1,0,0,0,1 @ F,0,0,1,0,0,0,1 @ F,0,0,1,0,0,0,1 @ F,0,0,1,0,0,0,1 @ F,0,0,1,0,0,0,1 @ F,0,0,1,0,0,0,1 @ F,0,0,1,0,0,0,1 @ F,0,0,1,0,0,0,1 @ F,0,0,1,0,0,0,1 @ F,0,0,1,0,0,0,1 @ F,0,0,1,0,0,0,1"
       radius="0"
       unit="px"
       method="auto"
       mode="F"
       chamfer_steps="1"
       flexible="false"
       use_knot_distance="true"
       apply_no_radius="true"
       apply_with_radius="true"
       only_selected="false"
       hide_knots="false" />
    <inkscape:path-effect
       effect="fillet_chamfer"
       id="path-effect17"
       is_visible="true"
       lpeversion="1"
       nodesatellites_param="F,0,0,1,0,0,0,1 @ F,0,0,1,0,0,0,1 @ F,0,0,1,0,0,0,1 @ F,0,0,1,0,0,0,1 @ F,0,0,1,0,0,0,1 @ F,0,0,1,0,0,0,1 @ F,0,0,1,0,0,0,1 @ F,0,0,1,0,0,0,1 @ F,0,0,1,0,0,0,1 @ F,0,0,1,0,0,0,1 @ F,0,0,1,0,0,0,1 @ F,0,0,1,0,0,0,1 @ F,0,0,1,0,0,0,1 @ F,0,0,1,0,0,0,1 @ F,0,0,1,0,0,0,1 @ F,0,0,1,0,0,0,1 @ F,0,0,1,0,0,0,1 @ F,0,0,1,0,0,0,1 @ F,0,0,1,0,0,0,1 @ F,0,0,1,0,0,0,1"
       radius="0"
       unit="px"
       method="auto"
       mode="F"
       chamfer_steps="1"
       flexible="false"
       use_knot_distance="true"
       apply_no_radius="true"
       apply_with_radius="true"
       only_selected="false"
       hide_knots="false" />
    <inkscape:path-effect
       effect="fillet_chamfer"
       id="path-effect16"
       is_visible="true"
       lpeversion="1"
       nodesatellites_param="F,0,0,1,0,0,0,1 @ F,0,0,1,0,0,0,1 @ F,0,0,1,0,0,0,1 @ F,0,0,1,0,0,0,1 @ F,0,0,1,0,0,0,1 @ F,0,0,1,0,0,0,1 @ F,0,0,1,0,0,0,1 @ F,0,1,1,0,2.954802,0,1 @ F,0,0,1,0,2.954802,0,1 @ F,0,0,1,0,0,0,1 @ F,0,0,1,0,0,0,1 @ F,0,0,1,0,0,0,1 @ F,0,0,1,0,0,0,1 @ F,0,0,1,0,0,0,1 @ F,0,0,1,0,0,0,1"
       radius="0"
       unit="px"
       method="auto"
       mode="F"
       chamfer_steps="1"
       flexible="false"
       use_knot_distance="true"
       apply_no_radius="true"
       apply_with_radius="true"
       only_selected="false"
       hide_knots="false" />
    <style
       id="style1">
      .cls-1 {
        fill: #316733;
      }

      .cls-1, .cls-2, .cls-3 {
        stroke-width: 0px;
      }

      .cls-2 {
        fill: #222832;
      }

      .cls-3 {
        fill: #74b944;
      }
    </style>
  </defs>
  <g
     id="g1"
     transform="translate(384.37332,166)">
    <g
       id="g9">
      <g
         id="g8">
        <path
           id="path5"
           class="cls-2"
           d="m 215.32031,54 0.01,0.0098 c -31.60994,0 -63.22014,-0.02 -94.83008,0 -8.82998,0 -13.67969,5.009783 -13.67969,14.009765 0.01,14.569972 -0.11992,29.150737 0.0801,43.720695 0.13,9.37 0.18953,18.80963 1.26953,28.09961 3.07,26.35996 14.80973,48.52067 33.67969,66.89063 9.84998,9.58998 21.70947,16.07883 34.18945,21.54883 3.44,1.51 6.96166,3.09008 9.93164,5.33008 4.79,3.60998 4.83858,9.36056 0.3086,13.31054 -2.02,1.77 -4.47868,3.09961 -6.88868,4.34961 -6.40998,3.34 -13.11009,6.18133 -19.33007,9.86133 -33.38994,19.75996 -50.36094,49.87875 -52.96094,88.13867 -1.17,17.23996 -0.30897,34.63121 -0.20899,51.95117 0.04,7.3 5.64993,12.63977 12.91993,12.75977 1.16,0.02 2.30875,0.0195 3.46875,0.0195 h 186.5 c 8.94998,0 13.96093,-5.07971 13.96093,-14.17969 0,-14.99996 -0.0995,-29.99027 -0.0195,-44.99023 0.1,-20.36996 -5.23049,-39.20082 -15.73047,-56.55078 -0.14988,-0.24766 -0.32123,-0.47089 -0.47265,-0.7168 l -16.29883,16.61523 c 4.09755,7.76881 7.06103,16.32617 8.80078,25.71289 0.89,4.84 1.23985,9.82979 1.33985,14.75977 0.20998,10.66998 0.0916,21.33002 0.10156,32 v 3.5 c -13.06998,0.84 -25.50057,0.80867 -37.31055,-5.61133 -17.14996,-9.30998 -33.58963,-19.52955 -47.84961,-33.01953 -0.29718,-0.28727 -0.62891,-0.53623 -1.11133,-0.92969 -6.64998,5.36 -12.79892,11.01971 -19.6289,15.67969 -9.69998,6.61998 -19.78143,12.72135 -29.94141,18.61133 -7.18998,4.17 -15.0693,6.21891 -23.5293,5.62891 -4.04998,-0.28 -8.14939,-0.0488 -12.35937,-0.0488 -0.15,-0.78 -0.33008,-1.26 -0.33008,-1.75 -0.01,-12.45998 -0.23945,-24.93088 0.0606,-37.38086 0.57,-23.60996 10.43902,-43.05098 26.95898,-59.46094 8.11998,-8.06998 17.73041,-13.68914 27.90039,-18.61914 6.59,-3.2 13.21924,-6.27008 18.44922,-11.83008 9.66998,-10.29998 9.98078,-28.73986 2.80078,-38.83984 -3.10998,-4.36 -7.30017,-7.15033 -11.91015,-9.57031 -7.61,-3.99 -15.55041,-7.5401 -22.65039,-12.33008 -21.96996,-14.80998 -36.49993,-34.86067 -40.66993,-61.64063 -0.67,-4.35998 -0.91922,-8.83 -0.94922,-13.25 -0.1,-15.30996 -0.0102,-30.619711 0.01,-45.929681 0,-0.619998 0.0789,-1.239846 0.12891,-2.089844 h 33.4641 c 2.59787,0 6.51157,1.080765 8.71822,2.451732 16.70718,10.380002 31.9038,22.086823 45.82158,36.513113 12.83497,-15.29813 28.32895,-26.418054 44.76243,-36.539661 2.19314,-1.350787 6.07175,-2.425184 8.64754,-2.425184 h 30.47675 v 3.570313 c 0.01,13.939972 0.0393,27.880332 0.0293,41.820312 -0.01,19.18996 -4.8794,36.87963 -16.10938,52.59961 -9.55054,13.35993 -21.57042,23.81022 -36.3404,30.9902 -4.34,2.11 -8.62969,4.32953 -12.92969,6.51953 -10.85998,5.51 -15.62945,14.58135 -15.93945,26.61133 -0.34,13.47998 5.5883,22.98844 17.23828,29.14844 7.12998,3.76998 14.58994,6.9807 21.41992,11.2207 1.32113,0.81948 2.60954,1.66211 3.87305,2.52344 l 15.97851,-16.29102 c -6.37191,-4.61514 -13.25182,-8.64774 -20.65039,-12.08203 -4.08998,-1.9 -8.22095,-3.83055 -11.96093,-6.31055 -6.43,-4.25998 -6.26983,-11.60009 0.16015,-15.83007 2.27,-1.5 4.76071,-2.67985 7.22071,-3.83985 13.06996,-6.13998 25.64947,-12.90017 36.18945,-23.16015 21.56996,-20.99996 33.17133,-46.51061 34.11133,-76.56055 0.62,-19.93996 0.0695,-39.918946 0.0195,-59.878908 C 323.70047,58.560334 319.1206,54 308.89062,54 Z"
           inkscape:path-effect="#path-effect1"
           inkscape:original-d="m 215.32031,54 0.01,0.0098 c -31.60994,0 -63.22014,-0.02 -94.83008,0 -8.82998,0 -13.67969,5.009783 -13.67969,14.009765 0.01,14.569972 -0.11992,29.150737 0.0801,43.720695 0.13,9.37 0.18953,18.80963 1.26953,28.09961 3.07,26.35996 14.80973,48.52067 33.67969,66.89063 9.84998,9.58998 21.70947,16.07883 34.18945,21.54883 3.44,1.51 6.96166,3.09008 9.93164,5.33008 4.79,3.60998 4.83858,9.36056 0.3086,13.31054 -2.02,1.77 -4.47868,3.09961 -6.88868,4.34961 -6.40998,3.34 -13.11009,6.18133 -19.33007,9.86133 -33.38994,19.75996 -50.36094,49.87875 -52.96094,88.13867 -1.17,17.23996 -0.30897,34.63121 -0.20899,51.95117 0.04,7.3 5.64993,12.63977 12.91993,12.75977 1.16,0.02 2.30875,0.0195 3.46875,0.0195 h 186.5 c 8.94998,0 13.96093,-5.07971 13.96093,-14.17969 0,-14.99996 -0.0995,-29.99027 -0.0195,-44.99023 0.1,-20.36996 -5.23049,-39.20082 -15.73047,-56.55078 -0.14988,-0.24766 -0.32123,-0.47089 -0.47265,-0.7168 l -16.29883,16.61523 c 4.09755,7.76881 7.06103,16.32617 8.80078,25.71289 0.89,4.84 1.23985,9.82979 1.33985,14.75977 0.20998,10.66998 0.0916,21.33002 0.10156,32 v 3.5 c -13.06998,0.84 -25.50057,0.80867 -37.31055,-5.61133 -17.14996,-9.30998 -33.58963,-19.52955 -47.84961,-33.01953 -0.29718,-0.28727 -0.62891,-0.53623 -1.11133,-0.92969 -6.64998,5.36 -12.79892,11.01971 -19.6289,15.67969 -9.69998,6.61998 -19.78143,12.72135 -29.94141,18.61133 -7.18998,4.17 -15.0693,6.21891 -23.5293,5.62891 -4.04998,-0.28 -8.14939,-0.0488 -12.35937,-0.0488 -0.15,-0.78 -0.33008,-1.26 -0.33008,-1.75 -0.01,-12.45998 -0.23945,-24.93088 0.0606,-37.38086 0.57,-23.60996 10.43902,-43.05098 26.95898,-59.46094 8.11998,-8.06998 17.73041,-13.68914 27.90039,-18.61914 6.59,-3.2 13.21924,-6.27008 18.44922,-11.83008 9.66998,-10.29998 9.98078,-28.73986 2.80078,-38.83984 -3.10998,-4.36 -7.30017,-7.15033 -11.91015,-9.57031 -7.61,-3.99 -15.55041,-7.5401 -22.65039,-12.33008 -21.96996,-14.80998 -36.49993,-34.86067 -40.66993,-61.64063 -0.67,-4.35998 -0.91922,-8.83 -0.94922,-13.25 -0.1,-15.30996 -0.0102,-30.619711 0.01,-45.929681 0,-0.619998 0.0789,-1.239846 0.12891,-2.089844 h 38.16797 c 18.29662,10.987115 34.81143,23.391405 49.83593,38.964845 13.86757,-16.5289 30.83921,-28.180251 48.7461,-38.964845 h 35.14062 v 3.570313 c 0.01,13.939972 0.0393,27.880332 0.0293,41.820312 -0.01,19.18996 -4.8794,36.87963 -16.10938,52.59961 -9.55054,13.35993 -21.57042,23.81022 -36.3404,30.9902 -4.34,2.11 -8.62969,4.32953 -12.92969,6.51953 -10.85998,5.51 -15.62945,14.58135 -15.93945,26.61133 -0.34,13.47998 5.5883,22.98844 17.23828,29.14844 7.12998,3.76998 14.58994,6.9807 21.41992,11.2207 1.32113,0.81948 2.60954,1.66211 3.87305,2.52344 l 15.97851,-16.29102 c -6.37191,-4.61514 -13.25182,-8.64774 -20.65039,-12.08203 -4.08998,-1.9 -8.22095,-3.83055 -11.96093,-6.31055 -6.43,-4.25998 -6.26983,-11.60009 0.16015,-15.83007 2.27,-1.5 4.76071,-2.67985 7.22071,-3.83985 13.06996,-6.13998 25.64947,-12.90017 36.18945,-23.16015 21.56996,-20.99996 33.17133,-46.51061 34.11133,-76.56055 0.62,-19.93996 0.0695,-39.918946 0.0195,-59.878908 C 323.70047,58.560334 319.1206,54 308.89062,54 Z" />
      </g>
      <text
         xml:space="preserve"
         style="font-weight:800;font-size:266.667px;line-height:0;font-family:TheSansMonoSCd;-inkscape-font-specification:'TheSansMonoSCd Ultra-Bold';fill:#00549f;stroke:#ffffff;stroke-width:0"
         x="-123.73278"
         y="79.84465"
         id="text2"><tspan
           sodipodi:role="line"
           id="tspan1"
           x="-123.73278"
           y="79.84465" /></text>
      <g
         id="path2">
        <path
           id="path16"
           style="color:#000000;fill:#00549f;stroke-width:0;stroke-linejoin:round;stroke-dasharray:none"
           d="m 356.45312,217.77148 -52.97851,14.59375 11.75586,11.58008 -59.96094,60.86914 -14.17578,-11.95703 -4.81055,-4.05859 c -4.53473,-3.82467 -11.28533,-3.36501 -15.25976,1.03906 0,0 -16.06033,17.67644 -23.69532,24.66602 -11.11987,10.17988 -21.48664,20.05722 -32.79101,26.5332 -3.25286,1.86348 -13.55969,5.40725 -18.58203,7.08594 -1.54759,0.51727 -2.80334,2.24897 -2.80078,3.88086 l 0.0254,15.42773 c 0.003,1.63189 1.32973,2.93285 2.95312,2.77148 5.22152,-0.51904 16.73842,-2.50228 29.33985,-10.07617 14.32052,-8.60711 25.89768,-19.49535 36.71093,-29.39453 5.79966,-5.30938 12.59008,-12.4913 17.97657,-18.3164 l 18.70703,15.77929 c 4.3925,3.70354 10.8953,3.40321 14.92773,-0.68945 l 67.10742,-68.12305 11.75391,11.58008 z"
           inkscape:original-d="m 356.45312,217.77148 -52.97851,14.59375 11.75586,11.58008 -59.96094,60.86914 -14.17578,-11.95703 -4.81055,-4.05859 c -4.53473,-3.82467 -11.28533,-3.36501 -15.25976,1.03906 0,0 -16.06033,17.67644 -23.69532,24.66602 -11.11987,10.17988 -21.48664,20.05722 -32.79101,26.5332 -3.25286,1.86348 -13.55969,5.40725 -18.58203,7.08594 -1.54759,0.51727 -2.80334,2.24897 -2.80078,3.88086 l 0.0254,15.42773 c 0.003,1.63189 1.32973,2.93285 2.95312,2.77148 5.22152,-0.51904 16.73842,-2.50228 29.33985,-10.07617 14.32052,-8.60711 25.89768,-19.49535 36.71093,-29.39453 5.79966,-5.30938 12.59008,-12.4913 17.97657,-18.3164 l 18.70703,15.77929 c 4.3925,3.70354 10.8953,3.40321 14.92773,-0.68945 l 67.10742,-68.12305 11.75391,11.58008 z"
           inkscape:path-effect="#path-effect17" />
        <g
           id="g13">
          <g
             id="path13">
            <path
               style="color:#000000;fill:#00549f;fill-rule:evenodd;stroke-width:0;stroke-dasharray:none"
               d="m 361.59375,212.55273 -65.21875,17.96485 48.23633,47.51758 z m -10.28125,10.4375 -10.60938,40.90039 -30.12695,-29.67773 z"
               id="path15" />
          </g>
        </g>
      </g>
      <path
         id="path1"
         style="fill:#00549f;fill-opacity:1;stroke-width:0.453735"
         d="m 169.69141,103.70117 -1.35352,2.77539 c -0.7894,1.61901 -1.43555,3.21304 -1.43555,3.54492 0,1.43508 -1.19323,2.14903 -4.31054,2.57618 -11.93879,1.63583 -14.28926,2.12667 -15.07227,3.15039 -0.39989,0.52282 -0.5555,3.8912 -0.56641,12.17968 -0.0165,13.13267 -0.062,12.98087 3.92188,13.48243 1.20336,0.15151 3.31105,0.46563 4.68359,0.69922 1.37255,0.23359 4.25684,0.65141 6.41016,0.92968 3.47973,0.44965 3.97163,0.63254 4.42383,1.625 0.27983,0.61415 0.50976,1.29523 0.50976,1.51563 1e-5,0.22039 0.62862,1.75897 1.39649,3.41797 0.76787,1.65901 1.29562,3.25442 1.17383,3.54687 -0.12179,0.29243 -2.28659,3.18745 -4.81055,6.43164 -4.73138,6.0814 -5.31089,7.16417 -4.8418,9.03321 0.32124,1.2799 8.00658,9.45924 13.15039,13.99609 3.10631,2.73975 3.74127,3.11698 4.88282,2.88867 0.72181,-0.14437 4.25215,-2.51302 7.8457,-5.26367 3.59352,-2.75063 6.66569,-4.99999 6.82812,-5 0.16243,0 1.4001,0.50363 2.75,1.12109 1.34991,0.61747 2.96174,1.25057 3.58204,1.40625 0.62029,0.15568 1.30882,0.51918 1.53124,0.80664 0.45877,0.59286 1.20732,4.26144 1.95508,9.59571 1.11278,7.93818 1.1441,8.07223 2.19336,8.92187 0.93654,0.75835 2.03605,0.83399 12.12891,0.83399 6.50507,0 11.44405,-0.188 11.93945,-0.45313 1.34018,-0.71725 2.35092,-5.15073 3.57031,-15.6543 0.35521,-3.05978 0.71223,-3.85546 1.71875,-3.85547 0.38164,0 2.01728,-0.61265 3.63477,-1.36132 1.61747,-0.74866 3.15707,-1.36132 3.42383,-1.36133 0.44174,0 1.92872,1.13212 9.43359,7.18555 3.47978,2.80674 5.16804,3.46917 6.97852,2.74023 1.73521,-0.69864 15.28077,-14.1131 16.34765,-16.18945 0.98997,-1.92662 0.7556,-2.55812 -2.32226,-6.29492 -1.40254,-1.70279 -3.71797,-4.66711 -5.14844,-6.5879 l -2.60156,-3.49218 1.82617,-4.28321 1.82617,-4.2832 1.86914,-0.25977 c 3.73784,-0.51859 11.00429,-1.61975 13.39649,-2.03124 4.10859,-0.70666 4.1054,-0.70232 4.11718,-13.51954 0.009,-10.2503 -0.0475,-11.01486 -0.89453,-12.09179 -0.64038,-0.81411 -1.46802,-1.21036 -2.83593,-1.35938 -1.06236,-0.11573 -4.1768,-0.56997 -6.92188,-1.00976 -2.7451,-0.4398 -5.79224,-0.92602 -6.77148,-1.08203 -1.75994,-0.28041 -1.80253,-0.33608 -3.73438,-4.80079 -0.79225,-1.83096 -1.29839,-2.90409 -1.47265,-3.75 -6.76842,5.09557 -13.3722,10.42125 -19.74805,16.08789 a 29.065057,28.882283 0 0 1 1.30078,7.83985 29.065057,28.882283 0 0 1 -29.06445,28.88281 29.065057,28.882283 0 0 1 -29.06446,-28.88281 29.065057,28.882283 0 0 1 1.61133,-8.83203 c -6.33218,-5.37169 -12.78743,-10.54374 -19.39062,-15.51563 z" />
    </g>
    <g
       id="text1"
       style="font-weight:600;font-size:280.326px;line-height:0;font-family:TheSansMonoSCd;-inkscape-font-specification:'TheSansMonoSCd Semi-Bold';fill:#222832;stroke:#222832;stroke-width:4"
       transform="scale(1.0159479,0.98430245)"
       aria-label="optimex">
      <path
         style="fill:#00549f;fill-opacity:1;stroke:#00549f;stroke-opacity:1"
         d="m 566.85344,263.79562 c 0,-49.33737 -25.50966,-70.64215 -61.95204,-70.64215 -39.52597,0 -66.71759,31.39651 -66.71759,73.72574 0,50.739 25.78999,71.2028 61.67172,71.2028 39.52597,0 66.99791,-31.11619 66.99791,-74.28639 z m -29.43423,1.96228 c 0,31.67684 -15.41793,47.93575 -34.76042,47.93575 -22.42608,0 -35.04075,-17.09989 -35.04075,-49.05705 0,-32.51782 16.81956,-47.65542 35.32108,-47.65542 22.42608,0 34.48009,17.38021 34.48009,48.77672 z m 181.65103,-6.72782 c 0,-42.0489 -18.22119,-65.87661 -49.05705,-65.87661 -20.18347,0 -36.44238,11.77369 -44.01118,32.51782 l -0.56065,-0.28033 c 1.68195,-10.37206 1.96228,-21.02445 1.96228,-29.43423 h -26.63097 v 207.72156 h 28.31293 v -68.39954 c 5.32619,1.40163 12.89499,1.96228 20.74412,1.96228 41.48825,0 69.24052,-28.87358 69.24052,-78.21095 z m -30.27521,2.80326 c 0,37.56368 -17.38021,52.98161 -38.12433,52.98161 -8.97043,0 -15.69826,-1.40163 -21.5851,-3.36391 V 271.0841 c 0,-26.63097 12.89499,-54.10292 32.79814,-54.10292 17.09988,0 26.91129,15.1376 26.91129,44.85216 z m 180.52972,68.67987 -4.76554,-22.14576 c -8.40978,3.36391 -18.50152,5.3262 -27.47195,5.3262 -15.69825,0 -25.78999,-7.00815 -25.78999,-30.83586 v -64.19465 h 54.66357 V 195.95673 H 811.29727 V 143.8161 l -28.0326,7.5688 v 44.57183 h -40.92759 v 22.70641 h 40.92759 v 71.48312 c 0,34.76043 16.53924,47.65542 45.69314,47.65542 12.61467,0 28.31292,-2.52293 40.36694,-7.28847 z"
         id="path10" />
      <path
         d="M 1024.9055,335.27875 V 312.85267 H 983.69754 V 195.95673 h -70.92248 v 21.86543 h 42.60955 v 95.03051 h -47.09476 v 22.42608 z M 968.84026,131.76208 c -12.05402,0 -21.5851,9.53108 -21.5851,21.02445 0,11.77369 9.53108,21.30477 21.5851,21.30477 11.77369,0 21.30478,-9.53108 21.30478,-21.30477 0,-11.49337 -9.53109,-21.02445 -21.30478,-21.02445 z M 1185.532,335.27875 v -96.99279 c 0,-28.87358 -7.0081,-45.13249 -26.0703,-45.13249 -15.9786,0 -26.631,12.895 -31.6768,32.51782 -0.5607,-20.18348 -7.5688,-32.51782 -23.2671,-32.51782 -15.9786,0 -26.6309,13.17532 -31.6768,32.79814 h -0.2803 c 1.1213,-10.93271 1.9622,-20.74412 1.9622,-29.99488 h -21.8654 v 139.32202 h 22.9867 v -66.71759 c 0,-29.71455 10.9328,-52.70128 21.8655,-52.70128 8.4098,0 10.0917,8.6901 10.0917,29.1539 v 90.26497 h 22.9867 v -66.71759 c 0,-29.71455 10.9328,-52.70128 21.8655,-52.70128 8.4097,0 9.8114,8.6901 9.8114,28.31292 v 91.10595 z m 148.2923,-80.73389 c 0,-33.35879 -19.6229,-61.67171 -58.5882,-61.67171 -39.8063,0 -64.1946,31.39651 -64.1946,73.72573 0,48.77672 25.5096,71.76345 66.7176,71.76345 17.6605,0 37.844,-4.20489 52.4209,-10.65238 l -4.4852,-22.14576 c -12.6147,6.16717 -29.4342,9.81141 -42.8899,9.81141 -25.5096,0 -42.8898,-13.17532 -42.8898,-44.2915 0,-0.84098 0,-1.40163 0,-2.24261 h 93.0682 c 0.5606,-5.04587 0.841,-10.37206 0.841,-14.29663 z m -28.313,-5.60652 h -65.0356 c 2.2426,-22.14575 16.8196,-35.04075 33.9195,-35.04075 17.6605,0 31.1161,12.895 31.1161,35.04075 z m 191.4625,86.34041 -49.8981,-70.92248 47.0948,-68.39954 h -31.6768 l -33.6391,49.89803 -33.6392,-49.89803 h -34.1997 l 48.216,68.67987 -51.2996,70.64215 h 34.1998 l 34.4801,-51.57998 34.1997,51.57998 z"
         id="path11" />
    </g>
  </g>
</svg>
